<?xml version="1.0" standalone="no"?>
<!DOCTYPE svg PUBLIC "-//W3C//DTD SVG 20010904//EN"
 "http://www.w3.org/TR/2001/REC-SVG-20010904/DTD/svg10.dtd">
<svg version="1.0" xmlns="http://www.w3.org/2000/svg"
 width="1895.000000pt" height="1889.000000pt" viewBox="0 0 1895.000000 1889.000000"
 preserveAspectRatio="xMidYMid meet">

<g transform="translate(0.000000,1889.000000) scale(0.100000,-0.100000)"
fill="#000000" stroke="none">
<path d="M20 9445 l0 -9445 9465 0 9465 0 0 9445 0 9445 -9465 0 -9465 0 0
-9445z m9747 7705 c19 -66 30 -94 77 -186 l36 -72 -35 -58 c-29 -48 -35 -67
-35 -113 1 -92 58 -182 134 -211 46 -17 111 4 159 52 21 21 37 23 37 6 0 -7
12 -26 25 -43 52 -62 105 -140 105 -152 0 -10 -9 -9 -37 4 -55 25 -163 29
-204 8 -114 -58 -140 -106 -140 -252 0 -112 7 -141 74 -318 39 -102 49 -155
42 -218 -13 -116 -52 -201 -127 -277 -54 -54 -141 -120 -158 -120 -20 0 -101
63 -161 127 -61 65 -90 117 -113 211 -26 104 -28 96 60 352 55 159 65 241 42
340 -13 57 -70 125 -130 154 -34 17 -138 22 -166 7 -9 -4 -29 -11 -44 -15 -23
-5 -28 -3 -28 13 0 11 5 23 10 26 6 3 28 32 50 63 21 31 48 68 59 81 l19 25
36 -32 c20 -17 54 -36 77 -42 59 -16 119 15 166 86 34 51 35 56 31 128 -3 65
-8 81 -35 120 l-32 45 43 88 c24 48 49 104 55 123 26 74 52 184 51 209 -4 52
2 44 21 -29 11 -41 27 -100 36 -130z m-443 -1432 c3 -29 6 -74 6 -99 0 -128
86 -305 207 -426 l73 -73 -43 -19 c-89 -40 -235 -75 -252 -61 -7 5 -15 45 -19
89 -3 43 -14 100 -23 127 -22 65 -79 160 -120 201 -36 37 -40 52 -19 91 7 15
22 45 32 66 21 42 123 156 140 156 6 0 14 -24 18 -52z m879 -8 c56 -63 100
-136 111 -187 6 -25 1 -37 -28 -69 -85 -95 -132 -204 -142 -330 -4 -47 -11
-87 -16 -90 -9 -6 -133 21 -188 42 -115 42 -119 47 -65 88 49 38 137 151 167
216 55 118 59 134 73 295 11 117 12 118 88 35z m-3397 -651 c3 -5 26 -9 51 -9
24 0 57 -6 71 -14 43 -21 102 -46 112 -46 11 0 157 -71 225 -109 160 -90 378
-272 468 -391 23 -30 54 -70 70 -89 16 -18 32 -44 37 -57 5 -13 14 -24 20 -24
5 0 10 -9 10 -20 0 -11 4 -20 9 -20 11 0 115 -209 107 -217 -3 -3 -44 31 -91
76 -48 44 -92 81 -100 81 -7 0 -15 3 -17 8 -4 9 -237 164 -328 217 -45 26
-132 104 -280 250 -153 149 -240 227 -302 268 -48 32 -96 60 -105 64 -10 4
-22 12 -26 20 -4 7 -16 13 -25 13 -12 0 -13 3 -5 8 15 10 91 3 99 -9z m5912
-8 c-13 -10 -30 -21 -38 -24 -8 -4 -28 -16 -45 -27 -16 -11 -37 -23 -45 -27
-14 -6 -54 -36 -120 -88 -14 -11 -108 -102 -210 -202 -179 -177 -233 -224
-275 -244 -11 -5 -32 -17 -47 -27 -14 -9 -62 -39 -105 -66 -125 -80 -254 -175
-315 -235 -58 -55 -85 -64 -54 -17 9 14 16 32 16 41 0 9 7 18 15 21 8 4 15 17
15 29 0 13 4 25 8 27 4 2 21 28 36 58 16 30 37 66 48 80 158 207 237 289 399
412 105 80 126 93 274 166 152 75 191 92 213 92 9 0 26 7 36 15 11 8 38 15 61
15 23 0 45 4 51 9 9 10 82 19 97 13 4 -2 -3 -11 -15 -21z m-6183 -22 c113 -39
255 -121 355 -204 103 -85 140 -119 140 -127 0 -13 -33 -10 -55 6 -11 7 -31
16 -45 19 -14 3 -59 18 -100 32 -74 26 -78 27 -275 22 -112 -2 -213 -9 -230
-15 -16 -7 -58 -20 -91 -31 -57 -19 -143 -57 -189 -84 -85 -51 -144 -96 -194
-147 -31 -33 -60 -58 -63 -54 -6 5 44 127 95 234 38 81 144 235 178 261 131
99 336 137 474 88z m3238 7 c74 -31 162 -61 241 -80 6 -1 -17 -17 -50 -36 -32
-19 -95 -60 -139 -93 -44 -33 -86 -62 -93 -64 -11 -5 -78 34 -110 64 -7 7 -34
25 -60 40 -26 15 -49 30 -52 33 -3 3 -22 16 -42 29 -40 24 -50 44 -20 39 25
-4 128 28 217 68 38 17 69 17 108 0z m3433 -10 c13 -9 34 -16 47 -16 14 0 30
-7 37 -15 7 -8 18 -15 25 -15 7 0 33 -16 58 -35 50 -39 129 -151 181 -260 94
-194 109 -235 87 -235 -5 0 -17 13 -28 29 -19 30 -145 131 -163 131 -5 0 -10
4 -10 9 0 5 -12 14 -27 20 -16 6 -57 26 -92 46 -35 19 -71 35 -80 35 -10 0
-21 4 -26 9 -6 5 -39 17 -75 27 -48 13 -115 19 -262 22 -183 4 -201 2 -262
-19 -37 -12 -69 -26 -72 -30 -3 -5 -18 -9 -33 -9 -16 0 -34 -7 -41 -15 -13
-16 -64 -21 -58 -7 3 8 33 35 139 127 41 35 189 130 249 160 51 24 107 46 155
59 41 11 226 -3 251 -18z m-3026 -160 c0 -14 -14 -33 -38 -51 -66 -49 -123
-133 -148 -217 -8 -27 -18 -48 -21 -48 -3 0 -27 19 -53 43 -25 23 -61 54 -78
69 -18 14 -32 30 -32 35 0 13 210 150 280 181 69 31 90 28 90 -12z m-852 25
c9 -5 41 -21 71 -36 30 -16 79 -45 110 -67 31 -21 71 -48 89 -60 18 -11 32
-26 30 -34 -3 -12 -147 -144 -158 -144 -3 0 -18 34 -33 75 -31 84 -88 162
-141 195 -34 20 -48 55 -29 73 9 10 40 9 61 -2z m4380 -172 c12 -15 22 -30 22
-35 0 -4 12 -20 26 -35 27 -28 36 -43 74 -114 11 -22 29 -53 40 -70 10 -16 46
-86 80 -155 34 -69 68 -138 76 -153 8 -16 14 -39 14 -51 0 -12 7 -31 15 -42 8
-10 15 -31 15 -45 0 -14 3 -29 7 -33 4 -4 13 -34 20 -67 13 -65 9 -82 -29
-146 -42 -68 -76 -199 -81 -313 l-2 -55 -22 49 c-13 27 -23 57 -23 67 0 10 -4
20 -9 23 -10 7 -19 44 -56 224 -13 62 -21 121 -18 130 2 10 -3 64 -11 121 -9
58 -16 120 -16 139 0 56 -79 343 -101 367 -5 5 -9 15 -9 22 0 7 -13 41 -29 75
-16 35 -31 70 -35 78 -3 8 -17 35 -31 59 -14 24 -25 48 -25 54 0 11 73 -53
108 -94z m-7916 -11 c-42 -88 -59 -126 -87 -198 -9 -25 -22 -56 -27 -70 -6
-14 -14 -41 -19 -60 -4 -19 -13 -55 -19 -80 -24 -99 -30 -139 -35 -225 -2 -49
-9 -106 -15 -125 -5 -19 -10 -62 -10 -96 0 -34 -7 -81 -15 -104 -8 -23 -15
-57 -15 -75 0 -18 -7 -46 -15 -61 -8 -16 -15 -36 -15 -45 0 -9 -7 -30 -15 -45
-8 -16 -15 -37 -15 -46 0 -9 -4 -20 -10 -23 -5 -3 -10 -17 -10 -31 0 -13 -4
-24 -10 -24 -6 0 -10 33 -10 80 0 107 -33 227 -85 309 -36 59 -30 159 16 253
5 10 9 24 9 33 0 15 14 51 62 155 57 124 63 135 99 195 19 33 38 67 42 75 4 8
17 31 28 50 12 19 30 50 40 69 25 47 162 197 167 183 2 -7 -14 -49 -36 -94z
m4039 -165 c52 -49 94 -92 94 -97 0 -8 -62 -45 -164 -97 -37 -19 -47 -20 -64
-9 -11 7 -54 30 -96 52 -42 22 -79 43 -84 47 -4 4 28 41 70 82 84 80 121 109
139 109 7 0 54 -39 105 -87z m-2844 -164 c15 -5 45 -27 67 -47 69 -66 286
-368 286 -399 0 -10 -20 4 -70 47 -73 63 -160 113 -243 139 -45 15 -177 17
-203 3 -10 -5 -44 -17 -74 -26 -144 -46 -298 -200 -390 -393 -43 -89 -66 -97
-56 -20 18 141 29 180 78 282 58 119 82 152 187 253 114 110 175 152 225 153
17 0 40 4 51 9 28 12 109 12 142 -1z m5632 -1 c39 -7 87 -24 116 -42 47 -29
85 -60 85 -71 0 -12 71 -76 79 -71 21 13 172 -215 192 -289 28 -108 38 -159
44 -225 7 -85 8 -85 -56 39 -62 121 -192 273 -278 326 -25 15 -88 43 -140 61
-84 30 -104 33 -156 28 -59 -6 -158 -34 -173 -48 -4 -4 -22 -14 -40 -21 -35
-15 -135 -90 -166 -124 -25 -28 -42 -27 -24 2 8 12 21 33 29 47 8 14 26 41 42
61 15 20 27 40 27 43 0 3 16 27 35 53 80 108 133 168 178 204 55 44 88 48 206
27z m-3109 -43 c8 -7 34 -21 57 -31 23 -10 43 -24 43 -29 0 -6 -30 -31 -67
-55 -93 -60 -139 -96 -200 -154 -51 -48 -83 -57 -83 -21 0 9 -7 29 -15 44 -17
33 -14 38 58 95 46 37 116 122 130 159 5 13 13 16 34 11 16 -4 35 -12 43 -19z
m532 -45 c24 -35 68 -84 98 -109 30 -24 56 -54 58 -65 3 -23 -24 -96 -36 -96
-4 0 -41 29 -82 65 -41 36 -114 91 -162 122 -49 31 -88 62 -88 67 0 6 20 20
43 30 23 10 49 25 57 31 15 13 48 24 62 21 4 0 27 -30 50 -66z m-2780 29 c34
-17 72 -36 83 -42 11 -5 41 -21 67 -34 52 -26 178 -144 178 -166 0 -8 7 -21
16 -28 17 -14 154 -288 154 -307 0 -15 40 -91 51 -98 5 -3 9 -24 9 -48 0 -23
7 -51 15 -62 8 -10 15 -35 15 -55 0 -20 7 -54 16 -75 22 -52 15 -298 -10 -358
-9 -21 -16 -51 -16 -67 0 -15 -4 -31 -10 -34 -5 -3 -11 -16 -11 -28 -2 -36
-16 31 -18 82 -1 56 -18 152 -37 212 -8 26 -14 58 -14 71 0 13 -7 33 -15 44
-8 10 -15 33 -15 51 0 18 -6 47 -14 65 -7 18 -19 51 -26 73 -13 41 -44 113
-86 200 -30 61 -30 61 -130 215 -167 258 -199 306 -236 357 -55 75 -55 75 34
32z m4973 -6 c-10 -16 -25 -37 -35 -48 -18 -21 -249 -368 -263 -395 -4 -8 -16
-28 -27 -45 -10 -16 -42 -77 -70 -135 -28 -58 -56 -113 -61 -122 -5 -10 -9
-26 -9 -36 0 -10 -7 -27 -15 -38 -8 -10 -15 -31 -15 -45 0 -14 -7 -40 -16 -57
-8 -18 -13 -36 -10 -41 4 -5 0 -25 -8 -43 -19 -44 -37 -121 -46 -188 -4 -30
-13 -92 -20 -138 l-13 -83 -14 38 c-34 96 -58 324 -42 408 7 33 13 79 14 103
1 23 7 48 13 54 7 7 12 26 12 43 0 16 7 43 15 59 8 15 15 36 15 46 0 10 7 23
15 30 8 7 15 18 15 26 0 16 18 58 79 182 72 147 82 166 97 177 7 5 33 38 59
73 25 34 55 67 68 72 12 5 45 23 72 40 28 16 57 33 65 36 8 3 38 17 65 29 69
33 82 32 60 -2z m-2485 -118 c7 -8 16 -15 21 -15 20 0 289 -195 289 -210 0
-15 -23 -23 -175 -61 -22 -6 -44 -14 -49 -20 -6 -5 -19 -9 -31 -9 -12 0 -30
-7 -41 -15 -24 -18 -49 -19 -82 -1 -36 18 -89 36 -132 45 -19 4 -45 13 -57 19
-12 7 -34 12 -48 12 -29 0 -65 16 -65 29 0 18 314 239 341 240 9 1 22 -6 29
-14z m2020 -41 c0 -3 -11 -20 -25 -38 -14 -18 -25 -37 -25 -41 0 -5 -8 -17
-17 -27 -44 -48 -163 -290 -163 -330 0 -8 -3 -18 -7 -22 -9 -9 -31 -86 -43
-146 -4 -25 -13 -72 -19 -105 -6 -34 -8 -92 -5 -132 5 -53 4 -73 -5 -73 -6 0
-14 8 -17 18 -3 9 -9 26 -14 37 -71 180 -93 267 -85 335 9 74 41 168 71 207
13 17 24 35 24 39 0 16 161 171 234 225 74 55 96 67 96 53z m-3981 -68 c47
-36 104 -84 127 -108 57 -61 124 -148 124 -163 0 -7 6 -18 14 -24 19 -16 49
-169 43 -222 -9 -77 -79 -281 -106 -308 -15 -15 -16 -6 -18 99 -3 144 -37 295
-98 435 -31 72 -99 207 -109 218 -17 19 -86 123 -86 130 0 18 29 2 109 -57z
m1582 -226 c19 -11 79 -25 154 -38 25 -4 40 -12 40 -21 0 -13 -46 -41 -105
-65 -8 -3 -28 -15 -45 -26 -16 -11 -37 -22 -45 -26 -18 -7 -88 -43 -112 -58
-26 -16 -34 1 -16 37 27 52 48 125 48 167 0 38 2 40 31 40 17 0 39 -5 50 -10z
m779 -15 c0 -40 20 -116 46 -173 13 -29 24 -54 24 -56 0 -4 -143 68 -254 128
-27 14 -55 26 -62 26 -7 0 -18 9 -24 20 -10 19 -4 25 23 21 4 -1 24 6 43 14
20 8 48 15 63 15 14 1 37 7 51 15 14 8 40 14 58 15 28 0 32 -3 32 -25z m-3646
-221 c2 -127 15 -203 42 -256 8 -14 14 -31 14 -37 0 -7 5 -17 10 -24 10 -12
53 -68 98 -129 33 -46 113 -88 167 -88 48 0 117 33 149 70 34 41 66 103 66
130 0 24 15 27 24 4 10 -26 7 -199 -5 -256 -27 -131 -87 -284 -135 -341 -66
-80 -194 -204 -248 -240 -19 -13 -52 -38 -74 -55 -22 -18 -47 -32 -56 -32 -9
0 -19 -7 -22 -15 -4 -8 -13 -15 -22 -15 -8 0 -24 -7 -34 -17 -40 -36 -26 -1
30 73 56 75 122 198 122 228 0 7 7 30 15 49 21 50 20 237 -1 308 -19 64 -51
136 -65 144 -5 4 -9 13 -9 20 0 17 -52 94 -93 139 -16 17 -49 59 -73 93 -44
60 -44 62 -34 108 11 50 118 280 126 272 3 -3 6 -63 8 -133z m6457 109 c8 -10
28 -45 43 -78 15 -33 32 -68 37 -77 17 -33 39 -103 39 -127 0 -22 -59 -113
-84 -128 -52 -33 -171 -250 -201 -365 -28 -110 -16 -279 26 -358 4 -8 19 -40
32 -70 13 -30 52 -91 85 -135 33 -44 56 -82 50 -84 -5 -1 -17 4 -27 13 -10 9
-23 16 -29 16 -15 0 -77 40 -120 77 -20 18 -44 33 -52 33 -8 0 -70 55 -136
123 -140 141 -176 200 -237 392 -30 94 -35 387 -6 370 5 -4 9 -17 9 -29 0 -71
77 -176 147 -200 62 -21 85 -20 153 6 45 18 64 32 89 70 18 26 44 59 57 73 26
29 45 67 76 160 16 48 21 88 22 197 0 76 4 138 7 138 3 0 12 -8 20 -17z
m-3172 -14 c59 -27 150 -73 226 -115 33 -19 69 -38 80 -43 11 -5 44 -25 74
-45 29 -20 55 -36 58 -36 2 0 24 -15 48 -32 24 -18 62 -46 85 -62 22 -17 40
-35 40 -41 0 -6 -19 -38 -42 -71 -62 -86 -64 -90 -110 -184 -50 -104 -59 -135
-65 -224 -5 -74 8 -107 27 -65 5 13 14 31 19 39 5 8 30 58 55 110 25 52 55
106 66 120 18 23 20 24 20 5 0 -12 -4 -25 -10 -31 -5 -5 -12 -41 -16 -79 -6
-68 -5 -73 39 -165 70 -148 72 -157 72 -335 -1 -149 -3 -168 -32 -265 -35
-120 -42 -134 -140 -261 -39 -52 -88 -115 -107 -141 -46 -62 -116 -192 -116
-217 0 -11 -4 -23 -10 -26 -13 -8 -13 -55 0 -55 6 0 14 8 17 18 4 9 18 28 31
42 13 14 34 42 47 62 27 40 92 95 102 84 3 -3 1 -17 -5 -31 -7 -14 -12 -34
-12 -43 0 -9 -8 -43 -17 -74 -15 -46 -24 -59 -51 -72 -18 -9 -41 -16 -50 -16
-10 0 -27 -7 -38 -15 -10 -8 -29 -15 -41 -15 -12 0 -24 -4 -28 -9 -3 -5 -20
-13 -37 -17 -18 -3 -39 -10 -48 -14 -8 -4 -33 -15 -55 -25 -22 -9 -53 -24 -69
-33 -40 -21 -105 -21 -149 1 -50 24 -96 43 -197 82 -25 9 -60 23 -78 31 -18 8
-38 14 -45 14 -7 0 -31 9 -52 20 -35 18 -41 26 -47 63 -3 23 -11 62 -17 86
-20 77 -11 81 48 26 29 -27 69 -74 87 -102 33 -52 54 -67 54 -39 0 8 -14 45
-31 83 -17 37 -38 84 -46 103 -9 19 -19 37 -23 40 -4 3 -18 23 -32 45 -14 22
-35 51 -46 65 -97 114 -170 225 -187 284 -56 185 -67 328 -39 477 14 74 59
187 85 214 5 5 9 58 9 117 0 59 4 108 8 108 4 0 30 -44 57 -97 27 -54 52 -100
55 -103 4 -3 10 -22 14 -42 7 -40 20 -49 30 -22 12 31 6 139 -10 184 -33 93
-72 166 -151 282 -29 43 -53 81 -53 86 0 4 21 23 48 42 91 65 172 120 177 120
2 0 29 16 60 35 30 19 65 40 77 46 13 5 50 25 83 44 33 19 67 37 75 41 8 3 35
16 60 27 90 43 107 44 169 16z m-3816 -157 c94 -149 156 -318 165 -446 10
-149 -85 -317 -248 -439 -30 -23 -61 -47 -69 -55 -8 -7 -44 -37 -80 -66 -71
-57 -171 -159 -171 -174 0 -5 -11 -20 -23 -33 -56 -57 -148 -240 -180 -359 -8
-30 -20 -74 -26 -97 -7 -24 -16 -43 -20 -43 -12 0 -26 208 -25 375 1 188 15
306 59 515 8 36 19 90 26 120 6 30 17 70 25 88 8 18 14 40 14 50 0 9 7 30 15
46 8 15 15 35 15 42 0 8 4 22 9 32 26 47 62 136 92 222 41 121 47 136 52 120
3 -8 10 -35 17 -60 19 -65 47 -108 93 -141 72 -52 170 -33 217 43 17 28 20 45
17 108 -5 91 -18 149 -40 181 -10 13 -17 32 -17 42 0 33 39 0 83 -71z m7579
61 c-62 -117 -77 -273 -34 -333 40 -53 131 -77 185 -49 65 33 127 127 127 193
l0 31 20 -25 c11 -14 20 -32 20 -41 0 -8 7 -24 15 -35 8 -10 15 -29 15 -41 0
-12 7 -39 17 -60 9 -21 26 -60 38 -88 48 -108 55 -126 55 -140 0 -8 6 -29 14
-47 13 -32 29 -88 47 -173 16 -71 41 -199 45 -230 3 -16 12 -77 20 -135 19
-125 15 -455 -6 -560 l-13 -65 -19 75 c-40 165 -100 306 -181 423 -47 70 -186
214 -263 273 -180 138 -255 210 -286 276 -35 74 -43 91 -43 102 -1 6 -5 41 -9
78 -15 122 12 231 99 408 61 124 76 146 115 172 29 19 35 17 22 -9z m-5125
-435 c-3 -7 -5 -2 -5 12 0 14 2 19 5 13 2 -7 2 -19 0 -25z m2969 -88 c23 -47
49 -101 58 -120 9 -19 28 -55 41 -79 14 -24 25 -50 25 -57 0 -7 3 -14 8 -16 9
-4 72 -131 72 -146 0 -5 7 -15 15 -22 8 -7 15 -20 15 -29 0 -9 14 -45 31 -81
18 -36 35 -72 39 -80 4 -9 11 -30 14 -48 4 -17 12 -34 17 -37 5 -4 9 -21 9
-38 1 -18 7 -43 15 -57 8 -14 14 -43 15 -65 0 -22 7 -60 16 -85 13 -37 14 -53
5 -87 -7 -24 -15 -43 -20 -43 -4 0 -78 68 -165 151 -111 108 -156 158 -156
174 0 12 -7 28 -15 35 -8 7 -15 22 -15 34 0 12 -6 30 -14 41 -7 11 -16 34 -19
50 -11 59 -36 161 -45 185 -11 30 -16 515 -5 533 5 8 9 6 13 -8 3 -11 24 -58
46 -105z m-376 75 c0 -13 -4 -27 -10 -30 -6 -4 -10 8 -10 30 0 22 4 34 10 30
6 -3 10 -17 10 -30z m-2906 -67 c13 -196 2 -388 -30 -488 -8 -25 -14 -56 -14
-70 -1 -14 -7 -34 -15 -44 -8 -11 -15 -30 -15 -43 0 -23 -2 -29 -33 -91 -9
-19 -17 -38 -17 -43 0 -24 -283 -305 -319 -317 -10 -3 -17 38 -13 78 1 8 2 40
3 70 1 30 8 70 15 89 8 18 14 48 14 66 0 18 7 38 15 45 8 7 15 28 15 46 0 19
4 34 9 34 5 0 12 10 16 23 3 12 10 31 15 42 5 11 19 43 30 70 20 45 178 367
199 405 5 8 16 31 24 50 28 64 47 105 57 120 5 8 11 23 14 33 12 39 23 12 30
-75z m359 -7 c16 -36 16 -40 0 -77 l-17 -39 -7 50 c-16 110 -6 136 24 66z
m2525 -26 c-3 -30 -8 -58 -12 -62 -14 -14 -27 23 -21 61 7 45 12 56 27 56 7 0
9 -20 6 -55z m-2430 -148 c27 -40 27 -37 3 -90 -11 -23 -22 -55 -25 -70 -6
-24 -9 -27 -21 -17 -8 7 -15 17 -15 22 0 6 -7 26 -16 44 -16 34 -16 37 11 90
15 29 30 54 34 54 3 0 16 -15 29 -33z m2370 -20 c26 -49 27 -69 8 -105 -8 -15
-17 -36 -21 -46 -8 -25 -19 -12 -40 44 -27 72 -29 106 -9 133 24 31 34 27 62
-26z m-2227 -140 c25 -26 26 -30 13 -67 -7 -21 -17 -82 -20 -134 -4 -53 -10
-96 -15 -96 -14 0 -69 93 -75 127 -9 46 1 125 22 179 18 49 22 48 75 -9z
m2088 29 c6 -7 18 -49 26 -92 12 -60 13 -85 4 -111 -14 -44 -74 -135 -82 -126
-4 3 -7 41 -7 83 0 42 -4 90 -9 106 -24 76 -22 94 11 125 37 33 41 34 57 15z
m-1903 -110 l24 6 -7 -58 c-11 -80 -8 -319 5 -371 5 -24 6 -43 2 -43 -5 0 -29
19 -54 41 -52 47 -71 96 -81 204 -6 77 7 199 25 220 8 10 18 11 36 4 14 -5 36
-6 50 -3z m1750 -29 c14 -59 7 -283 -11 -320 -18 -39 -101 -124 -112 -114 -3
4 -1 35 5 70 25 140 24 260 -4 371 -5 20 -2 22 55 23 59 2 60 2 67 -30z
m-2832 -733 c-31 -60 -82 -146 -113 -192 -123 -180 -191 -302 -191 -343 0 -11
-5 -30 -12 -42 -12 -22 -19 -53 -39 -162 -14 -77 -58 -212 -97 -295 l-30 -65
-12 30 c-6 17 -14 44 -17 60 -4 28 -12 55 -48 169 -22 73 -20 198 6 277 12 35
26 68 30 74 5 5 9 16 9 25 0 8 26 44 57 80 81 91 507 509 511 500 1 -4 -23
-56 -54 -116z m4010 -116 c239 -240 302 -309 323 -358 5 -14 18 -42 27 -63 9
-21 16 -47 16 -58 0 -11 5 -30 11 -42 9 -16 9 -44 -1 -117 -7 -52 -17 -103
-22 -112 -5 -10 -13 -37 -18 -60 -24 -110 -37 -153 -49 -153 -23 0 -131 288
-131 349 0 17 -9 63 -21 101 -11 39 -25 87 -30 107 -8 33 -32 83 -81 170 -7
12 -37 56 -67 98 -80 109 -225 380 -205 380 3 0 115 -109 248 -242z m-2497
-442 c15 -8 48 -22 73 -31 25 -10 59 -23 75 -31 17 -7 49 -21 73 -30 23 -10
39 -21 35 -25 -9 -8 -52 -34 -123 -74 -58 -32 -78 -45 -118 -73 -48 -35 -58
-26 -54 49 2 35 -4 97 -12 138 -20 96 -12 108 51 77z m839 -58 c-4 -40 -9
-108 -13 -150 -3 -43 -9 -78 -14 -78 -5 0 -42 22 -83 50 -41 27 -85 54 -98 60
-42 19 -102 57 -106 69 -2 6 6 11 17 11 21 0 27 2 89 33 19 9 40 17 47 17 7 0
26 6 42 14 125 62 127 62 119 -26z m-347 -159 c27 -16 53 -29 60 -29 6 0 11
-3 11 -8 0 -4 17 -16 38 -27 52 -28 122 -77 122 -87 0 -4 -7 -8 -15 -8 -9 0
-33 -11 -55 -25 -22 -14 -46 -25 -53 -25 -7 0 -18 -5 -23 -10 -22 -22 -168
-100 -187 -100 -11 0 -35 11 -53 25 -18 14 -39 25 -47 25 -8 0 -20 7 -27 15
-7 8 -18 15 -25 15 -7 0 -18 7 -25 15 -7 8 -21 15 -31 15 -11 0 -19 4 -19 8 0
5 -22 18 -50 30 -27 12 -50 24 -50 26 0 4 118 82 157 102 62 34 89 50 103 60
40 31 102 25 169 -17z m-434 -288 c44 -22 87 -42 95 -45 8 -3 22 -10 30 -15 8
-5 32 -17 53 -27 20 -10 37 -22 37 -26 0 -4 -12 -15 -27 -25 -59 -37 -221
-159 -271 -205 -51 -46 -72 -57 -72 -40 0 4 4 12 10 18 15 15 40 168 47 292 3
61 9 112 12 112 3 0 41 -18 86 -39z m762 -2 c7 -94 26 -242 40 -307 9 -40 13
-75 10 -79 -4 -3 -35 20 -70 53 -34 32 -105 89 -157 127 -131 93 -136 98 -125
103 6 3 71 35 145 73 74 37 140 67 145 66 6 -1 11 -17 12 -36z m2114 -89 c16
-76 45 -162 68 -201 11 -19 28 -48 36 -66 9 -18 23 -37 31 -44 8 -6 14 -16 14
-22 0 -11 131 -176 177 -222 52 -52 103 -142 180 -315 9 -19 22 -47 30 -62 7
-14 13 -33 13 -41 0 -8 7 -20 15 -27 8 -7 15 -25 15 -41 0 -15 5 -31 10 -34 6
-3 10 -15 10 -27 0 -11 6 -34 14 -51 7 -18 19 -59 25 -92 24 -117 51 -251 61
-298 12 -58 13 -97 3 -97 -15 0 -450 446 -483 495 -19 28 -37 52 -40 55 -4 3
-9 12 -13 20 -3 8 -20 38 -37 65 -16 28 -32 57 -36 65 -3 8 -10 22 -15 30 -5
8 -12 22 -15 30 -3 8 -12 28 -21 43 -8 15 -12 34 -9 42 3 8 -1 20 -8 27 -7 8
-15 25 -18 38 -3 14 -11 39 -16 55 -43 123 -47 156 -47 405 0 169 4 262 13
300 19 79 25 90 29 55 2 -16 8 -55 14 -85z m-5043 56 c6 -14 16 -107 23 -208
10 -157 9 -200 -4 -308 -18 -140 -46 -247 -83 -323 -8 -16 -14 -33 -14 -38 0
-9 -82 -179 -103 -214 -50 -81 -164 -223 -230 -285 -44 -41 -133 -127 -199
-190 -129 -124 -156 -146 -144 -114 4 10 12 44 17 74 15 86 40 202 50 236 5
17 9 46 9 65 1 19 7 45 15 59 8 14 14 35 15 46 0 12 7 35 15 50 8 16 15 39 15
52 0 12 4 22 9 22 5 0 12 10 16 23 9 33 34 96 61 152 13 28 24 55 24 61 0 7 7
17 15 24 8 7 15 19 15 27 0 25 92 156 167 238 73 78 140 170 182 250 12 22 26
47 30 55 28 49 71 192 71 236 0 40 12 44 28 10z m2637 -218 c80 -53 144 -106
235 -198 135 -135 188 -203 227 -289 14 -31 31 -69 39 -84 8 -16 14 -35 14
-43 0 -8 5 -14 10 -14 6 0 10 -7 10 -15 0 -22 -12 -19 -46 13 -44 40 -98 57
-134 42 -47 -19 -60 -50 -60 -139 0 -44 5 -83 10 -86 6 -3 10 -17 10 -29 0
-13 7 -29 15 -36 8 -7 15 -20 15 -30 0 -10 7 -23 15 -30 8 -7 15 -18 15 -24 0
-21 140 -166 166 -172 13 -3 24 -10 24 -14 0 -5 10 -12 23 -16 12 -3 29 -12
37 -19 8 -7 33 -16 55 -19 33 -6 46 -3 68 14 23 18 27 29 27 71 0 49 12 65 24
32 3 -10 10 -25 15 -33 15 -25 59 -143 66 -177 4 -18 11 -35 16 -38 5 -4 9
-21 9 -39 0 -18 7 -41 15 -52 8 -10 15 -35 15 -54 0 -19 7 -57 15 -84 17 -57
19 -86 5 -86 -5 0 -10 8 -10 19 0 10 -7 24 -15 31 -8 7 -15 18 -15 25 0 21
-147 158 -203 189 -73 40 -119 49 -186 35 -31 -6 -58 -15 -61 -18 -3 -4 -18
-15 -35 -23 -75 -39 -103 -56 -147 -86 -53 -36 -158 -140 -158 -155 0 -6 -11
-25 -25 -43 -29 -39 -31 -44 -8 -44 19 0 78 43 110 80 26 31 42 20 19 -14 -9
-14 -16 -34 -16 -44 0 -10 -5 -23 -12 -30 -15 -15 -31 -112 -31 -187 0 -108
33 -186 109 -255 37 -34 40 -34 124 -34 83 0 89 1 131 34 24 18 74 63 112 99
37 36 67 61 67 56 0 -6 -9 -35 -21 -65 -12 -30 -23 -66 -26 -79 -6 -26 -59
-128 -78 -151 -7 -8 -21 -31 -30 -50 -10 -19 -73 -91 -140 -160 -125 -129
-201 -215 -270 -306 -22 -29 -65 -85 -96 -126 -30 -40 -68 -95 -84 -123 -42
-74 -85 -135 -94 -135 -8 0 -151 204 -151 215 0 4 -26 41 -57 83 -116 154
-223 280 -337 392 -63 63 -116 118 -116 123 0 4 -17 33 -38 65 -45 67 -63 104
-111 229 -23 59 -9 67 29 16 36 -48 114 -111 140 -113 8 0 24 -7 34 -15 13
-10 44 -15 89 -15 65 0 73 2 114 36 26 21 52 55 64 83 12 25 27 58 35 73 9 17
14 58 14 115 0 84 -11 137 -46 221 -25 59 -12 85 20 38 8 -14 26 -28 38 -32
13 -3 26 -11 29 -17 4 -5 15 -7 24 -3 16 6 17 8 1 24 -9 10 -16 25 -16 33 0
19 -173 189 -192 189 -9 0 -18 6 -21 13 -2 7 -25 23 -51 35 -25 13 -48 27 -51
33 -4 5 -13 9 -22 9 -9 0 -21 7 -28 16 -9 13 -30 17 -91 17 -68 0 -85 -3 -124
-26 -25 -15 -55 -31 -67 -36 -28 -13 -131 -116 -144 -144 -10 -25 -26 -51 -51
-86 -17 -23 -18 -23 -18 -3 0 11 5 33 12 49 11 27 22 88 34 180 3 23 12 47 20
54 8 6 14 24 14 39 0 16 7 42 15 59 8 17 22 45 30 62 8 17 15 37 15 45 0 21
29 74 40 74 6 0 10 -17 10 -39 0 -55 41 -95 88 -86 117 22 280 164 348 302 75
155 62 295 -30 319 -28 7 -87 -19 -131 -58 l-36 -31 7 29 c4 16 13 36 20 45 8
8 14 22 14 30 0 9 7 24 15 35 8 10 15 27 15 37 0 10 5 23 10 30 6 7 20 26 33
44 88 126 114 158 181 225 113 112 330 266 376 267 15 1 69 -28 135 -71z
m-1030 -1037 c3 -5 1 -12 -5 -16 -5 -3 -10 1 -10 9 0 18 6 21 15 7z m-2045
-277 c0 -7 -68 -154 -95 -207 -8 -16 -15 -39 -15 -51 0 -12 -5 -27 -11 -33
-11 -11 -15 -26 -44 -161 -8 -41 -17 -78 -20 -83 -3 -5 -6 -91 -7 -191 -1
-240 17 -331 101 -499 65 -128 166 -270 301 -419 85 -94 89 -100 61 -100 -32
0 -242 38 -296 54 -112 33 -125 37 -130 46 -4 6 -15 10 -26 10 -23 0 -109 53
-163 101 -41 35 -73 81 -119 169 -16 30 -36 62 -43 71 -8 8 -14 30 -14 48 0
17 -6 45 -14 60 -8 15 -15 43 -14 62 0 19 0 90 -1 159 -2 113 3 158 29 270 10
44 29 97 46 132 8 14 14 33 14 42 0 9 4 16 10 16 5 0 13 12 16 27 4 15 11 32
15 38 5 5 36 47 70 93 33 45 118 138 187 207 70 68 132 129 137 134 12 12 25
14 25 5z m6050 -131 c88 -91 207 -235 234 -282 17 -30 58 -114 66 -136 4 -11
14 -38 22 -60 27 -72 37 -109 58 -215 24 -125 26 -214 5 -263 -8 -20 -15 -56
-15 -79 -1 -24 -7 -54 -15 -68 -8 -14 -14 -32 -15 -41 0 -31 -113 -208 -159
-251 -56 -53 -141 -108 -166 -108 -10 0 -26 -6 -34 -14 -37 -31 -441 -116
-441 -92 0 3 8 14 18 24 193 202 355 436 410 593 34 96 40 123 52 204 15 97 5
351 -16 431 -8 30 -14 67 -14 82 -1 15 -7 38 -15 52 -8 14 -14 37 -15 52 0 15
-4 30 -10 33 -5 3 -10 14 -10 23 -1 9 -9 35 -20 57 -11 22 -19 46 -20 53 0 6
-4 12 -10 12 -5 0 -10 8 -10 17 0 9 -6 24 -14 32 -7 9 -16 30 -19 48 l-6 32
32 -19 c18 -11 75 -64 127 -117z m-3279 -1636 c9 -12 41 -60 72 -107 81 -123
87 -130 97 -130 12 0 20 10 80 100 27 41 66 93 86 115 l37 40 -6 -60 c-12
-123 25 -323 78 -414 37 -65 227 -231 264 -231 5 0 14 -7 21 -15 7 -8 23 -15
35 -15 12 0 28 -7 35 -15 7 -8 24 -15 39 -15 15 0 31 -4 36 -9 21 -18 115 -36
220 -41 61 -3 109 -9 109 -14 -4 -22 -158 -99 -259 -129 -161 -49 -321 -63
-375 -32 -14 8 -33 14 -43 15 -11 0 -31 9 -45 21 -15 11 -54 38 -87 59 -33 22
-87 64 -120 94 -33 31 -72 61 -87 67 -31 13 -45 3 -189 -123 -36 -32 -70 -58
-76 -58 -6 0 -22 -9 -37 -21 -53 -42 -144 -69 -230 -69 -72 0 -185 19 -241 41
-11 4 -29 10 -40 13 -41 10 -96 33 -107 44 -7 7 -20 12 -29 12 -9 0 -21 6 -27
13 -6 7 -27 19 -47 27 -19 7 -35 17 -35 22 0 10 -12 9 115 15 60 2 117 9 127
14 9 5 27 9 40 9 13 0 33 7 44 15 10 8 31 15 45 15 15 0 32 7 39 15 7 8 21 15
31 15 23 0 135 65 174 102 17 15 34 28 39 28 10 0 66 56 66 67 0 4 14 22 30
40 17 18 30 40 30 50 0 11 5 24 11 30 26 26 54 178 54 301 0 67 2 122 5 122 3
0 12 -11 21 -23z m-2738 -23 c40 -8 104 -20 142 -24 211 -27 415 -57 470 -71
22 -6 56 -14 75 -18 19 -5 62 -17 95 -26 33 -10 77 -20 97 -22 21 -3 42 -11
49 -19 6 -8 17 -14 24 -14 7 0 18 -7 25 -15 7 -8 18 -15 26 -15 7 0 29 -10 49
-22 35 -22 154 -115 165 -128 3 -4 39 -35 80 -70 41 -35 77 -67 80 -70 3 -3
32 -27 65 -55 33 -27 101 -85 150 -129 50 -43 124 -104 165 -135 99 -75 304
-174 408 -198 14 -4 22 -12 20 -22 -3 -13 -26 -19 -108 -28 -58 -7 -106 -17
-108 -23 -2 -6 -60 -10 -153 -10 -88 0 -148 4 -145 9 6 9 -17 14 -119 27 -44
5 -159 27 -290 54 -39 9 -186 56 -255 82 -35 14 -191 90 -220 108 -8 5 -55 34
-105 63 -77 47 -128 80 -239 157 -132 92 -385 328 -442 413 -16 23 -32 44 -37
45 -4 2 -17 20 -28 40 -11 21 -28 51 -39 67 -44 68 -42 93 7 74 14 -5 57 -16
96 -25z m5956 24 c0 -7 -9 -26 -20 -43 -10 -16 -22 -37 -25 -45 -9 -18 -103
-151 -118 -165 -6 -6 -36 -37 -65 -70 -85 -93 -215 -209 -338 -301 -62 -46
-115 -84 -119 -84 -3 0 -23 -13 -44 -30 -21 -16 -40 -30 -43 -30 -3 0 -41 -22
-84 -48 -79 -49 -234 -127 -308 -155 -147 -55 -187 -68 -240 -78 -180 -36
-281 -54 -368 -64 -26 -4 -45 -10 -42 -16 4 -5 -51 -9 -139 -9 -84 0 -146 4
-148 10 -1 5 -52 15 -113 22 -90 11 -110 16 -113 31 -2 11 3 17 15 17 10 0 31
7 47 15 15 8 35 15 42 15 8 0 22 4 32 9 9 5 40 19 67 31 122 53 250 137 350
228 22 21 67 60 100 87 33 28 71 60 85 73 34 31 95 83 150 128 25 20 74 63
110 96 36 33 98 79 138 102 40 22 82 46 94 52 11 7 25 17 31 23 6 6 22 11 36
11 13 0 38 4 55 9 38 12 133 38 201 57 28 7 86 18 130 24 73 11 124 18 359 49
96 13 214 37 247 50 33 13 39 13 38 -1z m-5100 -3039 c51 -110 51 -111 51
-210 0 -98 -1 -102 -47 -201 l-47 -100 -98 -49 c-94 -47 -98 -48 -108 -29 -10
18 -3 24 75 62 l85 42 0 86 0 85 -95 100 -94 100 52 55 c131 139 162 170 168
170 3 0 29 -50 58 -111z m3264 -260 c178 -89 220 -127 288 -261 l49 -98 0
-645 0 -645 120 0 120 0 0 739 0 739 153 101 152 101 103 -103 102 -102 0
-737 0 -738 120 0 120 0 0 740 0 740 151 101 151 100 104 -102 104 -103 -2
-760 -3 -759 -140 -45 -140 -44 -107 -106 -107 -105 -52 105 -52 106 -86 41
-86 42 -134 -45 -135 -45 -98 -98 -98 -97 -53 52 c-48 48 -63 55 -187 97
l-134 45 -186 1 -185 0 128 65 127 64 0 310 0 310 -77 0 -77 0 -63 -62 -63
-62 0 120 0 120 58 57 58 57 82 0 82 0 0 218 0 218 -45 134 -45 135 -87 87
c-48 49 -84 88 -80 88 4 0 71 -32 150 -71z m-7536 19 c-29 -51 -197 -355 -366
-663 l-121 -220 83 -5 c69 -4 96 -11 167 -45 120 -56 180 -115 241 -237 l49
-98 0 -152 0 -153 -53 -100 c-44 -86 -66 -113 -147 -191 l-95 -91 -140 -47
-140 -46 -191 0 -191 0 -161 55 c-239 81 -298 114 -414 232 -113 115 -151 183
-229 408 l-49 143 0 161 0 160 49 143 c77 227 121 305 238 420 93 91 106 100
235 162 75 36 139 66 142 66 2 0 -54 -60 -125 -132 -154 -159 -196 -227 -270
-450 l-49 -147 0 -221 0 -221 45 -138 c67 -206 120 -300 234 -415 l93 -96 139
-45 138 -45 170 0 171 0 0 543 0 543 -32 17 -33 16 36 0 35 1 157 282 c86 155
154 284 152 286 -1 2 -26 -8 -54 -22 -44 -23 -63 -26 -148 -26 -95 0 -98 1
-183 45 l-87 44 -42 -35 -41 -36 0 -519 0 -519 -46 -93 c-33 -65 -64 -110
-108 -154 -33 -34 -64 -63 -68 -63 -5 0 -8 286 -8 635 l0 635 93 46 c83 42
106 60 243 196 l151 150 101 -51 c98 -49 105 -51 185 -51 l82 0 90 90 c49 50
91 90 93 90 2 0 -7 -19 -21 -42z m10351 -912 c68 17 244 85 317 124 44 23 103
64 130 91 28 27 54 49 59 49 4 0 33 -23 64 -51 30 -28 95 -70 143 -95 83 -41
94 -44 171 -44 l83 -1 -122 -62 -123 -62 0 -415 0 -415 -96 -95 c-83 -82 -103
-108 -144 -191 l-47 -97 -1 -125 -1 -124 112 -112 111 -111 -81 0 -80 0 -52
99 -51 100 0 147 c0 145 1 151 50 340 l50 192 0 401 0 401 -90 45 c-58 29
-103 45 -127 45 -21 0 -98 -19 -170 -42 l-133 -43 0 -360 0 -361 100 -49 100
-49 -107 -108 c-59 -59 -111 -108 -115 -108 -4 0 -30 21 -58 48 -28 26 -93 68
-143 94 -88 46 -96 48 -177 48 l-85 0 125 64 125 64 3 641 2 641 -51 101 c-27
56 -49 102 -47 104 2 1 75 50 163 109 l160 106 3 -470 2 -470 28 6z m1772 704
c0 -3 -49 -30 -110 -60 l-110 -54 -110 54 c-60 30 -110 56 -110 59 0 2 51 52
113 112 l112 108 108 -107 c59 -59 107 -109 107 -112z m-9366 25 l46 -140 285
-285 285 -285 0 -482 0 -483 -108 0 c-101 0 -116 -3 -239 -44 -72 -24 -177
-67 -234 -95 l-104 -51 -50 49 c-31 30 -85 67 -142 95 l-93 46 -132 1 -133 0
128 65 127 64 0 423 0 423 123 38 c115 35 317 122 317 135 0 3 -101 107 -225
231 -124 124 -224 228 -223 232 5 14 313 216 319 209 4 -3 27 -69 53 -146z
m3246 -585 c-96 -191 -232 -394 -333 -497 l-82 -83 118 0 117 0 100 -50 100
-50 0 -205 0 -204 -137 -45 c-76 -24 -186 -67 -246 -95 l-107 -51 -100 50
c-94 47 -104 50 -177 50 -73 0 -84 -3 -170 -47 -87 -44 -94 -46 -110 -31 -15
16 -7 29 112 190 85 114 175 220 264 311 l135 137 -117 0 -117 0 -105 51 -105
50 2 201 3 200 145 47 c80 26 189 70 242 96 l97 49 93 -44 c85 -40 101 -44
183 -48 l90 -3 84 85 c47 47 87 84 89 82 2 -2 -29 -68 -68 -146z m6918 -23
c45 -44 52 -57 52 -89 0 -21 2 -38 4 -38 2 0 57 18 122 41 163 56 298 127 358
188 l49 50 69 -60 c37 -32 96 -73 131 -91 54 -28 75 -33 162 -38 l100 -5 -122
-63 -123 -62 0 -425 0 -425 -103 0 c-96 0 -112 -3 -247 -49 -80 -26 -187 -69
-239 -95 l-94 -47 -33 32 -34 33 0 -162 0 -162 45 -90 c25 -49 45 -93 45 -98
0 -5 -72 -57 -160 -115 l-160 -107 0 430 0 430 -127 1 -128 0 128 65 127 64 0
405 0 405 -60 120 c-33 66 -60 122 -60 125 0 3 55 -22 123 -56 86 -43 137 -76
175 -112z m-963 104 c34 -32 91 -69 159 -103 58 -29 106 -55 106 -58 0 -3 -45
-28 -100 -55 l-100 -49 0 -365 0 -365 37 -38 c36 -37 39 -38 107 -38 l71 0
-120 -120 -120 -120 -102 102 -103 103 0 417 0 418 -105 52 c-58 29 -105 55
-105 58 0 3 49 30 110 60 76 38 124 69 157 102 26 26 49 48 52 48 2 0 28 -22
56 -49z m-10399 -146 c79 -40 80 -40 219 -45 l139 -5 -122 -60 -122 -60 0
-427 0 -428 -108 0 c-101 0 -116 -3 -238 -44 -71 -24 -177 -67 -234 -95 l-104
-52 -50 50 c-32 30 -86 67 -143 95 l-93 46 -132 1 -133 0 128 65 127 64 0 425
0 425 108 0 c102 0 114 3 247 49 77 26 180 69 230 93 l90 46 56 -52 c30 -28
91 -69 135 -91z"/>
<path d="M11550 3770 l0 -260 120 0 120 0 0 218 0 218 -43 42 -43 42 -77 0
-77 0 0 -260z"/>
<path d="M12300 3770 l0 -260 120 0 120 0 0 218 0 218 -43 42 -43 42 -77 0
-77 0 0 -260z"/>
<path d="M11550 3295 l0 -165 120 0 120 0 0 165 0 165 -120 0 -120 0 0 -165z"/>
<path d="M12300 3295 l0 -165 120 0 120 0 0 165 0 165 -120 0 -120 0 0 -165z"/>
<path d="M11550 2827 l0 -263 80 -39 80 -39 40 39 40 39 0 263 0 263 -120 0
-120 0 0 -263z"/>
<path d="M12300 2827 l0 -263 80 -39 80 -39 40 39 40 39 0 263 0 263 -120 0
-120 0 0 -263z"/>
<path d="M2890 3145 l0 -155 160 0 160 0 -36 71 c-47 95 -113 163 -196 205
-37 19 -72 34 -78 34 -6 0 -10 -56 -10 -155z"/>
<path d="M2890 2825 l0 -115 165 0 165 0 0 115 0 115 -165 0 -165 0 0 -115z"/>
<path d="M2890 2455 l0 -205 26 10 c52 20 120 64 167 109 59 55 137 202 137
256 l0 35 -165 0 -165 0 0 -205z"/>
<path d="M6143 3417 l-122 -82 -1 -410 0 -411 83 -39 c46 -23 104 -61 133 -87
l51 -48 124 43 124 42 3 404 2 404 -132 134 c-73 73 -135 133 -138 132 -3 0
-60 -37 -127 -82z"/>
<path d="M8711 3365 l-41 -45 2 -168 3 -167 80 -42 c59 -31 92 -42 125 -43 44
0 48 3 136 93 103 104 309 396 292 413 -2 2 -43 -17 -91 -41 -86 -44 -88 -45
-187 -45 -99 0 -102 1 -189 45 l-89 44 -41 -44z"/>
<path d="M8807 2722 c-118 -118 -332 -379 -321 -391 2 -2 39 19 82 48 l78 51
147 0 147 0 89 -44 88 -45 37 38 36 37 0 180 0 180 -85 42 c-136 67 -134 68
-298 -96z"/>
<path d="M16493 3327 l-123 -41 0 -361 0 -361 83 -39 c46 -23 104 -61 133 -87
l51 -48 118 40 c65 22 122 45 125 50 4 6 5 21 4 33 -1 12 -3 192 -3 400 l-1
378 -84 39 c-109 51 -143 51 -303 -3z"/>
<path d="M4438 3368 l-118 -40 0 -407 0 -407 91 -44 c60 -30 105 -60 131 -88
l39 -43 124 41 c117 39 123 42 129 72 9 43 7 761 -2 774 -4 6 -44 30 -89 52
-50 26 -98 59 -124 87 -23 25 -47 45 -53 44 -6 0 -64 -19 -128 -41z"/>
</g>
</svg>
