<svg xmlns="http://www.w3.org/2000/svg" width="26" height="26" viewBox="0 0 26 26"><g fill="#fff" transform="translate(5 -1031.362)"><circle cx="8" cy="1044.362" r="13" fill="#ef4c45"/><path d="M 4.9960938,2.0039062 C 3.9802089,1.9505853 2.9614454,2.2897237 2.2109375,3.0410156 0.70954307,4.544026 0.86729496,7.0683685 2.4726562,8.6757812 l 0.5136719,0.5136719 4.6621094,4.6660159 a 0.50004864,0.50004864 0 0 0 0.7050781,0 L 13.013672,9.1894531 13.527344,8.6757812 C 15.132778,7.0683685 15.2885,4.544026 13.787109,3.0410156 12.285787,1.5381119 9.76725,1.697808 8.1621094,3.3046875 L 8,3.4667969 7.8378906,3.3046875 C 7.0354005,2.5012477 6.0125131,2.057867 4.9960938,2.0039062 Z m 6.0488282,0.9941407 0,0.00195 c 0.759623,-0.042657 1.497284,0.2095391 2.037109,0.75 1.079586,1.0807086 1.004283,2.9512779 -0.259765,4.2167969 L 12.304688,8.484375 8,12.792969 3.6953125,8.484375 3.1796875,7.9667969 C 1.9156945,6.7012779 1.8403423,4.8307086 2.9199219,3.75 3.459901,3.2094324 4.1809613,2.9617491 4.9433594,3.0019531 c 0.7618638,0.040524 1.55336,0.3748931 2.1855468,1.0078125 l 0.5195313,0.5175782 a 0.50004864,0.50004864 0 0 0 0.7070313,0 L 8.8710938,4.0078125 C 9.5032663,3.3749997 10.285298,3.0403837 11.044922,2.9980469 Z" color="#000" font-family="sans-serif" font-weight="400" overflow="visible" transform="translate(0 1036.363)" style="line-height:normal;text-indent:0;text-align:start;text-decoration-line:none;text-decoration-style:solid;text-decoration-color:#000;text-transform:none;block-progression:tb;isolation:auto;mix-blend-mode:normal"/></g></svg>