<?xml version="1.0" standalone="no"?>
<!DOCTYPE svg PUBLIC "-//W3C//DTD SVG 20010904//EN"
 "http://www.w3.org/TR/2001/REC-SVG-20010904/DTD/svg10.dtd">
<svg version="1.0" xmlns="http://www.w3.org/2000/svg"
 width="1920.000000pt" height="339.000000pt" viewBox="0 0 1920.000000 339.000000"
 preserveAspectRatio="xMidYMid meet">

<g transform="translate(0.000000,339.000000) scale(0.100000,-0.100000)"
fill="#000000" stroke="none">
<path d="M140 1695 l0 -1415 1385 0 1385 0 0 1415 0 1415 -215 0 -215 0 0
-1200 0 -1200 -370 0 -370 0 0 465 0 465 -215 0 -215 0 0 -465 0 -465 -370 0
-370 0 0 1200 0 1200 -215 0 -215 0 0 -1415z"/>
<path d="M1310 2590 l0 -520 215 0 215 0 0 520 0 520 -215 0 -215 0 0 -520z"/>
<path d="M14537 2723 c-4 -3 -7 -496 -7 -1095 l0 -1088 250 0 250 0 0 420 0
420 385 0 385 0 0 -420 0 -420 250 0 250 0 0 1095 0 1095 -250 0 -250 0 0
-425 0 -425 -385 0 -385 0 0 425 0 425 -243 0 c-134 0 -247 -3 -250 -7z"/>
<path d="M12052 1623 l3 -1088 1088 -3 1087 -2 0 1090 0 1090 -250 0 -250 0 0
-840 0 -840 -167 2 -168 3 -3 838 -2 837 -250 0 -250 0 0 -840 0 -840 -167 2
-168 3 -3 838 -2 837 -250 0 -250 0 2 -1087z"/>
<path d="M16582 1623 l3 -1088 248 -3 247 -2 0 1090 0 1090 -250 0 -250 0 2
-1087z"/>
<path d="M17400 1625 l0 -1085 250 0 250 0 2 417 3 418 628 3 627 2 0 665 0
665 -880 0 -880 0 0 -1085z m1260 415 l0 -170 -377 2 -378 3 -3 168 -2 167
380 0 380 0 0 -170z"/>
</g>
</svg>
