<svg xmlns="http://www.w3.org/2000/svg" width="26" height="26" viewBox="0 0 26 26"><path d="M 13 0 C 5.8262205 0 -2.3684758e-015 5.8262021 0 13 C 0 20.173798 5.8262205 26 13 26 C 20.173779 26 26 20.173798 26 13 C 26 5.8262021 20.173779 0 13 0 z M 13 1 C 19.633339 1 25 6.366663 25 13 C 25 19.633337 19.633339 25 13 25 C 6.3666606 25 1 19.633337 1 13 C 1 6.366663 6.3666606 1 13 1 z M 9.9960938 7.0039062 C 8.9802093 6.9505853 7.9614454 7.2897237 7.2109375 8.0410156 C 5.7095431 9.544026 5.8672951 12.068368 7.4726562 13.675781 L 7.9863281 14.189453 L 12.648438 18.855469 A 0.50004864 0.50004864 0 0 0 13.353516 18.855469 L 18.013672 14.189453 L 18.527344 13.675781 C 20.132778 12.068368 20.288501 9.544026 18.787109 8.0410156 C 17.285788 6.5381119 14.76725 6.697808 13.162109 8.3046875 L 13 8.4667969 L 12.837891 8.3046875 C 12.0354 7.5012477 11.012513 7.057867 9.9960938 7.0039062 z M 16.044922 7.9960938 L 16.044922 7.9980469 C 16.804545 7.9553901 17.542206 8.2075859 18.082031 8.7480469 C 19.161617 9.8287555 19.086313 11.699325 17.822266 12.964844 L 17.304688 13.482422 L 13 17.791016 L 8.6953125 13.482422 L 8.1796875 12.964844 C 6.9156945 11.699325 6.8403423 9.8287555 7.9199219 8.7480469 C 8.4599009 8.2074793 9.1809617 7.959796 9.9433594 8 C 10.705224 8.0405239 11.496719 8.3748931 12.128906 9.0078125 L 12.648438 9.5253906 A 0.50004864 0.50004864 0 0 0 13.355469 9.5253906 L 13.871094 9.0058594 C 14.503267 8.3730466 15.285298 8.0384306 16.044922 7.9960938 z " color="#000" font-family="sans-serif" font-weight="400" overflow="visible" style="line-height:normal;text-indent:0;text-align:start;text-decoration-line:none;text-decoration-style:solid;text-decoration-color:#000;text-transform:none;block-progression:tb;isolation:auto;mix-blend-mode:normal"/></svg>